<svg xmlns="http://www.w3.org/2000/svg" xmlns:xlink="http://www.w3.org/1999/xlink" width="500" zoomAndPan="magnify" viewBox="0 0 375 374.999991" height="500" preserveAspectRatio="xMidYMid meet" version="1.0"><defs><g/><clipPath id="9baae08fbd"><path d="M 141.585938 158.628906 L 319.40625 158.628906 L 319.40625 290.523438 L 141.585938 290.523438 Z M 141.585938 158.628906 " clip-rule="nonzero"/></clipPath><clipPath id="eaafde7611"><path d="M 104 5.066406 L 195 5.066406 L 195 148 L 104 148 Z M 104 5.066406 " clip-rule="nonzero"/></clipPath><clipPath id="59bbf0bfcc"><path d="M 40.675781 146.628906 L 334.316406 146.628906 L 334.316406 171.175781 L 40.675781 171.175781 Z M 40.675781 146.628906 " clip-rule="nonzero"/></clipPath></defs><path fill="#ffffff" d="M 157.535156 197.601562 C 168.257812 187.519531 163.992188 170.417969 154.972656 158.824219 L 55.800781 158.824219 C 55.800781 212.59375 88.039062 258.804688 134.226562 279.265625 C 126.285156 233.386719 148.613281 205.992188 157.535156 197.601562 " fill-opacity="1" fill-rule="nonzero"/><g clip-path="url(#9baae08fbd)"><path fill="#ffffff" d="M 257.753906 158.824219 C 248.714844 172.785156 232.65625 191.222656 207.089844 200.730469 C 169.082031 214.863281 130.144531 223.65625 144.726562 283.378906 C 158.140625 287.984375 172.519531 290.523438 187.496094 290.523438 C 260.230469 290.523438 319.191406 231.558594 319.191406 158.824219 L 257.753906 158.824219 " fill-opacity="1" fill-rule="nonzero"/></g><g clip-path="url(#eaafde7611)"><path fill="#80cc28" d="M 164.019531 109.21875 C 155.738281 95.695312 148.476562 80.816406 147.277344 68.6875 C 147.277344 68.6875 156.632812 82.5 168.5625 97.375 C 173.851562 85.957031 182.09375 74.003906 194.496094 62.128906 C 181.878906 41.667969 158.210938 20.652344 114.976562 5.082031 C 114.976562 5.082031 91.773438 59.609375 115.1875 101.734375 L 115.183594 101.734375 C 123.945312 121.277344 139.890625 136.28125 160.929688 147.726562 C 159.457031 137.195312 159.507812 123.871094 164.019531 109.21875 " fill-opacity="1" fill-rule="nonzero"/></g><path fill="#80cc28" d="M 260.015625 43.8125 C 140.910156 86.707031 170.253906 170.933594 170.253906 170.933594 C 190.9375 161.714844 227.71875 107.414062 227.71875 107.414062 C 225.503906 129.746094 202.796875 161.4375 190.90625 176.679688 C 190.632812 176.984375 175.851562 193.402344 167.085938 198.21875 C 147.597656 208.9375 148.160156 219.660156 147.242188 224.328125 C 147.214844 224.464844 147.1875 224.574219 147.167969 224.671875 C 148.066406 222.183594 154.347656 209.378906 183.242188 199.660156 C 219.5625 187.449219 247.15625 168.675781 259.808594 140.464844 C 283.21875 98.335938 260.015625 43.8125 260.015625 43.8125 " fill-opacity="1" fill-rule="nonzero"/><g clip-path="url(#59bbf0bfcc)"><path fill="#ffffff" d="M 322.140625 146.644531 L 264.652344 146.644531 C 261.863281 152.386719 256.738281 161.535156 248.707031 171.003906 L 322.140625 171.003906 C 328.867188 171.003906 334.316406 165.546875 334.316406 158.824219 C 334.316406 152.097656 328.867188 146.644531 322.140625 146.644531 Z M 161.738281 171.003906 L 52.855469 171.003906 C 46.125 171.003906 40.675781 165.546875 40.675781 158.824219 C 40.675781 152.097656 46.125 146.644531 52.855469 146.644531 L 136.871094 146.644531 C 143.378906 149.246094 149.859375 152.738281 153.679688 157.207031 C 157.097656 161.207031 159.925781 166.003906 161.738281 171.003906 " fill-opacity="1" fill-rule="nonzero"/></g><g fill="#ffffff" fill-opacity="1"><g transform="translate(12.324864, 336.48512)"><g><path d="M 23.578125 -33.859375 L 30.8125 -33.859375 L 19.3125 0 L 11.484375 0 L 0 -33.859375 L 7.25 -33.859375 L 13.609375 -13.703125 C 13.960938 -12.515625 14.328125 -11.128906 14.703125 -9.546875 C 15.085938 -7.960938 15.328125 -6.863281 15.421875 -6.25 C 15.585938 -7.664062 16.164062 -10.148438 17.15625 -13.703125 Z M 23.578125 -33.859375 "/></g></g></g><g fill="#ffffff" fill-opacity="1"><g transform="translate(43.145589, 336.48512)"><g><path d="M 14.421875 -21.34375 C 12.921875 -21.34375 11.742188 -20.867188 10.890625 -19.921875 C 10.046875 -18.972656 9.566406 -17.628906 9.453125 -15.890625 L 19.359375 -15.890625 C 19.328125 -17.628906 18.867188 -18.972656 17.984375 -19.921875 C 17.109375 -20.867188 15.921875 -21.34375 14.421875 -21.34375 Z M 15.421875 0.46875 C 11.253906 0.46875 7.992188 -0.679688 5.640625 -2.984375 C 3.296875 -5.285156 2.125 -8.546875 2.125 -12.765625 C 2.125 -17.097656 3.207031 -20.445312 5.375 -22.8125 C 7.550781 -25.1875 10.550781 -26.375 14.375 -26.375 C 18.03125 -26.375 20.878906 -25.332031 22.921875 -23.25 C 24.960938 -21.164062 25.984375 -18.285156 25.984375 -14.609375 L 25.984375 -11.1875 L 9.28125 -11.1875 C 9.363281 -9.175781 9.957031 -7.609375 11.0625 -6.484375 C 12.175781 -5.359375 13.738281 -4.796875 15.75 -4.796875 C 17.300781 -4.796875 18.769531 -4.957031 20.15625 -5.28125 C 21.550781 -5.601562 23.003906 -6.117188 24.515625 -6.828125 L 24.515625 -1.359375 C 23.285156 -0.742188 21.96875 -0.285156 20.5625 0.015625 C 19.15625 0.316406 17.441406 0.46875 15.421875 0.46875 Z M 15.421875 0.46875 "/></g></g></g><g fill="#ffffff" fill-opacity="1"><g transform="translate(71.164424, 336.48512)"><g><path d="M 18.15625 -26.375 C 19.113281 -26.375 19.90625 -26.304688 20.53125 -26.171875 L 20 -19.546875 C 19.4375 -19.703125 18.742188 -19.78125 17.921875 -19.78125 C 15.671875 -19.78125 13.914062 -19.195312 12.65625 -18.03125 C 11.394531 -16.875 10.765625 -15.253906 10.765625 -13.171875 L 10.765625 0 L 3.703125 0 L 3.703125 -25.890625 L 9.046875 -25.890625 L 10.09375 -21.53125 L 10.4375 -21.53125 C 11.238281 -22.988281 12.320312 -24.160156 13.6875 -25.046875 C 15.0625 -25.929688 16.550781 -26.375 18.15625 -26.375 Z M 18.15625 -26.375 "/></g></g></g><g fill="#ffffff" fill-opacity="1"><g transform="translate(92.699562, 336.48512)"><g><path d="M 11.90625 0.46875 C 8.863281 0.46875 6.472656 -0.710938 4.734375 -3.078125 C 2.992188 -5.441406 2.125 -8.710938 2.125 -12.890625 C 2.125 -17.140625 3.007812 -20.445312 4.78125 -22.8125 C 6.550781 -25.1875 8.988281 -26.375 12.09375 -26.375 C 15.34375 -26.375 17.828125 -25.109375 19.546875 -22.578125 L 19.78125 -22.578125 C 19.414062 -24.503906 19.234375 -26.222656 19.234375 -27.734375 L 19.234375 -36.03125 L 26.328125 -36.03125 L 26.328125 0 L 20.90625 0 L 19.546875 -3.359375 L 19.234375 -3.359375 C 17.628906 -0.804688 15.1875 0.46875 11.90625 0.46875 Z M 14.375 -5.15625 C 16.1875 -5.15625 17.507812 -5.679688 18.34375 -6.734375 C 19.1875 -7.785156 19.648438 -9.570312 19.734375 -12.09375 L 19.734375 -12.84375 C 19.734375 -15.625 19.300781 -17.613281 18.4375 -18.8125 C 17.582031 -20.019531 16.191406 -20.625 14.265625 -20.625 C 12.691406 -20.625 11.46875 -19.957031 10.59375 -18.625 C 9.71875 -17.289062 9.28125 -15.351562 9.28125 -12.8125 C 9.28125 -10.257812 9.71875 -8.34375 10.59375 -7.0625 C 11.476562 -5.789062 12.738281 -5.15625 14.375 -5.15625 Z M 14.375 -5.15625 "/></g></g></g><g fill="#ffffff" fill-opacity="1"><g transform="translate(122.709818, 336.48512)"><g><path d="M 14.421875 -21.34375 C 12.921875 -21.34375 11.742188 -20.867188 10.890625 -19.921875 C 10.046875 -18.972656 9.566406 -17.628906 9.453125 -15.890625 L 19.359375 -15.890625 C 19.328125 -17.628906 18.867188 -18.972656 17.984375 -19.921875 C 17.109375 -20.867188 15.921875 -21.34375 14.421875 -21.34375 Z M 15.421875 0.46875 C 11.253906 0.46875 7.992188 -0.679688 5.640625 -2.984375 C 3.296875 -5.285156 2.125 -8.546875 2.125 -12.765625 C 2.125 -17.097656 3.207031 -20.445312 5.375 -22.8125 C 7.550781 -25.1875 10.550781 -26.375 14.375 -26.375 C 18.03125 -26.375 20.878906 -25.332031 22.921875 -23.25 C 24.960938 -21.164062 25.984375 -18.285156 25.984375 -14.609375 L 25.984375 -11.1875 L 9.28125 -11.1875 C 9.363281 -9.175781 9.957031 -7.609375 11.0625 -6.484375 C 12.175781 -5.359375 13.738281 -4.796875 15.75 -4.796875 C 17.300781 -4.796875 18.769531 -4.957031 20.15625 -5.28125 C 21.550781 -5.601562 23.003906 -6.117188 24.515625 -6.828125 L 24.515625 -1.359375 C 23.285156 -0.742188 21.96875 -0.285156 20.5625 0.015625 C 19.15625 0.316406 17.441406 0.46875 15.421875 0.46875 Z M 15.421875 0.46875 "/></g></g></g><g fill="#ffffff" fill-opacity="1"><g transform="translate(150.728652, 336.48512)"><g/></g></g><g fill="#ffffff" fill-opacity="1"><g transform="translate(163.047677, 336.48512)"><g><path d="M 18.640625 -28.359375 C 15.941406 -28.359375 13.847656 -27.34375 12.359375 -25.3125 C 10.878906 -23.289062 10.140625 -20.460938 10.140625 -16.828125 C 10.140625 -9.285156 12.972656 -5.515625 18.640625 -5.515625 C 21.015625 -5.515625 23.894531 -6.109375 27.28125 -7.296875 L 27.28125 -1.28125 C 24.5 -0.113281 21.394531 0.46875 17.96875 0.46875 C 13.039062 0.46875 9.269531 -1.023438 6.65625 -4.015625 C 4.050781 -7.003906 2.75 -11.289062 2.75 -16.875 C 2.75 -20.394531 3.390625 -23.476562 4.671875 -26.125 C 5.953125 -28.78125 7.789062 -30.8125 10.1875 -32.21875 C 12.59375 -33.632812 15.410156 -34.34375 18.640625 -34.34375 C 21.929688 -34.34375 25.234375 -33.546875 28.546875 -31.953125 L 26.234375 -26.125 C 24.972656 -26.71875 23.703125 -27.238281 22.421875 -27.6875 C 21.140625 -28.132812 19.878906 -28.359375 18.640625 -28.359375 Z M 18.640625 -28.359375 "/></g></g></g><g fill="#ffffff" fill-opacity="1"><g transform="translate(193.266345, 336.48512)"><g><path d="M 10.765625 0 L 3.703125 0 L 3.703125 -36.03125 L 10.765625 -36.03125 Z M 10.765625 0 "/></g></g></g><g fill="#ffffff" fill-opacity="1"><g transform="translate(207.73889, 336.48512)"><g><path d="M 9.328125 -12.984375 C 9.328125 -10.421875 9.75 -8.484375 10.59375 -7.171875 C 11.4375 -5.859375 12.804688 -5.203125 14.703125 -5.203125 C 16.585938 -5.203125 17.941406 -5.851562 18.765625 -7.15625 C 19.585938 -8.46875 20 -10.410156 20 -12.984375 C 20 -15.546875 19.582031 -17.46875 18.75 -18.75 C 17.914062 -20.03125 16.550781 -20.671875 14.65625 -20.671875 C 12.769531 -20.671875 11.410156 -20.035156 10.578125 -18.765625 C 9.742188 -17.492188 9.328125 -15.566406 9.328125 -12.984375 Z M 27.234375 -12.984375 C 27.234375 -8.773438 26.117188 -5.476562 23.890625 -3.09375 C 21.671875 -0.71875 18.578125 0.46875 14.609375 0.46875 C 12.128906 0.46875 9.9375 -0.0703125 8.03125 -1.15625 C 6.132812 -2.25 4.675781 -3.816406 3.65625 -5.859375 C 2.632812 -7.898438 2.125 -10.273438 2.125 -12.984375 C 2.125 -17.210938 3.226562 -20.5 5.4375 -22.84375 C 7.644531 -25.195312 10.75 -26.375 14.75 -26.375 C 17.238281 -26.375 19.429688 -25.832031 21.328125 -24.75 C 23.222656 -23.664062 24.679688 -22.113281 25.703125 -20.09375 C 26.722656 -18.070312 27.234375 -15.703125 27.234375 -12.984375 Z M 27.234375 -12.984375 "/></g></g></g><g fill="#ffffff" fill-opacity="1"><g transform="translate(237.100777, 336.48512)"><g><path d="M 18.15625 -26.375 C 19.113281 -26.375 19.90625 -26.304688 20.53125 -26.171875 L 20 -19.546875 C 19.4375 -19.703125 18.742188 -19.78125 17.921875 -19.78125 C 15.671875 -19.78125 13.914062 -19.195312 12.65625 -18.03125 C 11.394531 -16.875 10.765625 -15.253906 10.765625 -13.171875 L 10.765625 0 L 3.703125 0 L 3.703125 -25.890625 L 9.046875 -25.890625 L 10.09375 -21.53125 L 10.4375 -21.53125 C 11.238281 -22.988281 12.320312 -24.160156 13.6875 -25.046875 C 15.0625 -25.929688 16.550781 -26.375 18.15625 -26.375 Z M 18.15625 -26.375 "/></g></g></g><g fill="#ffffff" fill-opacity="1"><g transform="translate(258.635915, 336.48512)"><g><path d="M 9.328125 -12.984375 C 9.328125 -10.421875 9.75 -8.484375 10.59375 -7.171875 C 11.4375 -5.859375 12.804688 -5.203125 14.703125 -5.203125 C 16.585938 -5.203125 17.941406 -5.851562 18.765625 -7.15625 C 19.585938 -8.46875 20 -10.410156 20 -12.984375 C 20 -15.546875 19.582031 -17.46875 18.75 -18.75 C 17.914062 -20.03125 16.550781 -20.671875 14.65625 -20.671875 C 12.769531 -20.671875 11.410156 -20.035156 10.578125 -18.765625 C 9.742188 -17.492188 9.328125 -15.566406 9.328125 -12.984375 Z M 27.234375 -12.984375 C 27.234375 -8.773438 26.117188 -5.476562 23.890625 -3.09375 C 21.671875 -0.71875 18.578125 0.46875 14.609375 0.46875 C 12.128906 0.46875 9.9375 -0.0703125 8.03125 -1.15625 C 6.132812 -2.25 4.675781 -3.816406 3.65625 -5.859375 C 2.632812 -7.898438 2.125 -10.273438 2.125 -12.984375 C 2.125 -17.210938 3.226562 -20.5 5.4375 -22.84375 C 7.644531 -25.195312 10.75 -26.375 14.75 -26.375 C 17.238281 -26.375 19.429688 -25.832031 21.328125 -24.75 C 23.222656 -23.664062 24.679688 -22.113281 25.703125 -20.09375 C 26.722656 -18.070312 27.234375 -15.703125 27.234375 -12.984375 Z M 27.234375 -12.984375 "/></g></g></g><g fill="#ffffff" fill-opacity="1"><g transform="translate(287.997802, 336.48512)"><g><path d="M 18.015625 -20.578125 L 11.90625 -20.578125 L 11.90625 0 L 4.84375 0 L 4.84375 -20.578125 L 0.953125 -20.578125 L 0.953125 -23.984375 L 4.84375 -25.890625 L 4.84375 -27.78125 C 4.84375 -30.726562 5.566406 -32.878906 7.015625 -34.234375 C 8.460938 -35.597656 10.785156 -36.28125 13.984375 -36.28125 C 16.421875 -36.28125 18.59375 -35.921875 20.5 -35.203125 L 18.6875 -30.015625 C 17.269531 -30.460938 15.957031 -30.6875 14.75 -30.6875 C 13.75 -30.6875 13.023438 -30.382812 12.578125 -29.78125 C 12.128906 -29.1875 11.90625 -28.429688 11.90625 -27.515625 L 11.90625 -25.890625 L 18.015625 -25.890625 Z M 18.015625 -20.578125 "/></g></g></g><g fill="#ffffff" fill-opacity="1"><g transform="translate(306.360579, 336.48512)"><g><path d="M 3.40625 -32.578125 C 3.40625 -34.878906 4.6875 -36.03125 7.25 -36.03125 C 9.8125 -36.03125 11.09375 -34.878906 11.09375 -32.578125 C 11.09375 -31.484375 10.769531 -30.628906 10.125 -30.015625 C 9.488281 -29.410156 8.53125 -29.109375 7.25 -29.109375 C 4.6875 -29.109375 3.40625 -30.265625 3.40625 -32.578125 Z M 10.765625 0 L 3.703125 0 L 3.703125 -25.890625 L 10.765625 -25.890625 Z M 10.765625 0 "/></g></g></g><g fill="#ffffff" fill-opacity="1"><g transform="translate(320.833138, 336.48512)"><g><path d="M 10.765625 0 L 3.703125 0 L 3.703125 -36.03125 L 10.765625 -36.03125 Z M 10.765625 0 "/></g></g></g><g fill="#ffffff" fill-opacity="1"><g transform="translate(335.305697, 336.48512)"><g><path d="M 20.140625 0 L 18.78125 -3.515625 L 18.59375 -3.515625 C 17.40625 -2.023438 16.179688 -0.988281 14.921875 -0.40625 C 13.660156 0.175781 12.019531 0.46875 10 0.46875 C 7.519531 0.46875 5.5625 -0.238281 4.125 -1.65625 C 2.695312 -3.082031 1.984375 -5.109375 1.984375 -7.734375 C 1.984375 -10.484375 2.941406 -12.507812 4.859375 -13.8125 C 6.785156 -15.113281 9.6875 -15.835938 13.5625 -15.984375 L 18.0625 -16.109375 L 18.0625 -17.25 C 18.0625 -19.875 16.71875 -21.1875 14.03125 -21.1875 C 11.957031 -21.1875 9.523438 -20.5625 6.734375 -19.3125 L 4.40625 -24.078125 C 7.382812 -25.640625 10.6875 -26.421875 14.3125 -26.421875 C 17.78125 -26.421875 20.441406 -25.660156 22.296875 -24.140625 C 24.148438 -22.628906 25.078125 -20.332031 25.078125 -17.25 L 25.078125 0 Z M 18.0625 -12 L 15.328125 -11.90625 C 13.273438 -11.84375 11.742188 -11.46875 10.734375 -10.78125 C 9.734375 -10.101562 9.234375 -9.070312 9.234375 -7.6875 C 9.234375 -5.695312 10.378906 -4.703125 12.671875 -4.703125 C 14.304688 -4.703125 15.613281 -5.171875 16.59375 -6.109375 C 17.570312 -7.054688 18.0625 -8.304688 18.0625 -9.859375 Z M 18.0625 -12 "/></g></g></g></svg>